<!-- Generator: Adobe Illustrator 24.3.0, SVG Export Plug-In  -->
<svg version="1.1" xmlns="http://www.w3.org/2000/svg" xmlns:xlink="http://www.w3.org/1999/xlink" x="0px" y="0px" width="56px"
	 height="56px" viewBox="0 0 56 56" style="overflow:visible;enable-background:new 0 0 56 56;" xml:space="preserve">
<style type="text/css">
	.st0{fill:#D46B35;}
</style>
<defs>
</defs>
<g>
	<g>
		<path class="st0" d="M25.8,18.3v8.4h11.3v5.9H25.8v12.9H18V12.4h21.3v5.9H25.8z"/>
	</g>
	<g>
		<path class="st0" d="M28,56C12.6,56,0,43.4,0,28S12.6,0,28,0s28,12.6,28,28S43.4,56,28,56z M28,5C15.3,5,5,15.3,5,28
			c0,12.7,10.3,23,23,23s23-10.3,23-23C51,15.3,40.7,5,28,5z"/>
	</g>
</g>
</svg>
