<!-- Generator: Adobe Illustrator 24.3.0, SVG Export Plug-In  -->
<svg version="1.1" xmlns="http://www.w3.org/2000/svg" xmlns:xlink="http://www.w3.org/1999/xlink" x="0px" y="0px" width="160.6px"
	 height="126.7px" viewBox="0 0 160.6 126.7" style="overflow:visible;enable-background:new 0 0 160.6 126.7;"
	 xml:space="preserve">
<style type="text/css">
	.st0{fill:none;stroke:#D46B35;stroke-width:9;stroke-miterlimit:10;}
	.st1{fill:#D46B35;}
</style>
<defs>
</defs>
<g>
	<path class="st0" d="M138.1,122.2H22.5c-9.9,0-18-8.1-18-18V22.5c0-9.9,8.1-18,18-18h115.6c9.9,0,18,8.1,18,18v81.7
		C156.1,114.1,148,122.2,138.1,122.2z"/>
	<g>
		<g>
			<path class="st1" d="M115.6,102.3c-0.7,0-1.4-0.3-2-0.7l-13.1-11.3c-1.3-1.1-1.4-3-0.3-4.2c8.3-9.8,7.1-24.5-2.6-32.9
				c-4.2-3.6-9.5-5.5-14.9-5.5c-6.8,0-13.2,3-17.6,8.2c-0.5,0.6-1.3,1-2,1.1c-0.1,0-0.2,0-0.2,0c-0.7,0-1.4-0.3-2-0.7L47.6,45
				c-1.3-1.1-1.4-3-0.3-4.2C56.1,30.4,69,24.4,82.6,24.4c11,0,21.6,3.9,30,11.1c19.5,16.7,21.8,46.2,5.3,65.8c-0.5,0.6-1.3,1-2,1.1
				C115.8,102.3,115.7,102.3,115.6,102.3z"/>
			<path class="st1" d="M82.6,27.4c9.9,0,19.9,3.4,28,10.4c18.2,15.6,20.4,43.2,5,61.6L102.5,88c9.3-11.1,8-27.7-3-37.1
				c-4.9-4.2-10.9-6.2-16.9-6.2c-7.4,0-14.8,3.1-19.9,9.3L49.6,42.7C58.1,32.6,70.4,27.4,82.6,27.4 M82.6,21.4
				c-14.5,0-28.3,6.4-37.7,17.5c-2.1,2.5-1.8,6.3,0.7,8.4l13.1,11.3c1.1,0.9,2.5,1.4,3.9,1.4c0.2,0,0.3,0,0.5,0
				c1.6-0.1,3.1-0.9,4.1-2.1c3.8-4.5,9.4-7.1,15.3-7.1c4.8,0,9.4,1.7,13,4.8c8.5,7.3,9.5,20.1,2.3,28.6c-2.1,2.5-1.8,6.3,0.7,8.4
				l13.1,11.3c1.1,0.9,2.5,1.4,3.9,1.4c0.2,0,0.3,0,0.5,0c1.6-0.1,3.1-0.9,4.1-2.1c17.6-20.9,15.1-52.3-5.6-70
				C105.7,25.6,94.3,21.4,82.6,21.4L82.6,21.4z"/>
		</g>
	</g>
	<path class="st1" d="M28.6,65.3l1.3-30c0.3-7.8,9.8-11.5,15.4-6l28.7,28.7c5.5,5.5,1.8,15-6,15.4l-30,1.3
		C32.7,74.9,28.4,70.6,28.6,65.3z"/>
</g>
</svg>
