<!-- Generator: Adobe Illustrator 24.3.0, SVG Export Plug-In  -->
<svg version="1.1" xmlns="http://www.w3.org/2000/svg" xmlns:xlink="http://www.w3.org/1999/xlink" x="0px" y="0px" width="56px"
	 height="56px" viewBox="0 0 56 56" style="overflow:visible;enable-background:new 0 0 56 56;" xml:space="preserve">
<style type="text/css">
	.st0{fill:#D46B35;}
</style>
<defs>
</defs>
<g>
	<g>
		<path class="st0" d="M28,56C12.6,56,0,43.4,0,28S12.6,0,28,0s28,12.6,28,28S43.4,56,28,56z M28,5C15.3,5,5,15.3,5,28
			c0,12.7,10.3,23,23,23s23-10.3,23-23C51,15.3,40.7,5,28,5z"/>
	</g>
	<g>
		<path class="st0" d="M43,43.9h-7.2c-0.5,0-0.9-0.1-1.1-0.3c-0.3-0.2-0.5-0.5-0.7-0.8l-6.2-10.9c-0.1,0.3-0.2,0.6-0.4,0.8
			l-5.8,10.1c-0.2,0.3-0.4,0.5-0.7,0.8c-0.3,0.2-0.6,0.4-1,0.4H13l10-16l-9.6-15.1h7.2c0.5,0,0.8,0.1,1,0.2c0.2,0.1,0.4,0.3,0.6,0.6
			l6.2,10.5c0.1-0.2,0.2-0.4,0.2-0.5c0.1-0.2,0.2-0.3,0.3-0.5l5.4-9.3c0.2-0.3,0.4-0.5,0.6-0.7c0.2-0.1,0.5-0.2,0.8-0.2h6.9L33,27.6
			L43,43.9z"/>
	</g>
</g>
</svg>
