<!-- Generator: Adobe Illustrator 24.3.0, SVG Export Plug-In  -->
<svg version="1.1" xmlns="http://www.w3.org/2000/svg" xmlns:xlink="http://www.w3.org/1999/xlink" x="0px" y="0px" width="160.6px"
	 height="126.7px" viewBox="0 0 160.6 126.7" style="overflow:visible;enable-background:new 0 0 160.6 126.7;"
	 xml:space="preserve">
<style type="text/css">
	.st0{fill:#D46B35;}
	.st1{fill:none;stroke:#D46B35;stroke-width:9;stroke-miterlimit:10;}
</style>
<defs>
</defs>
<g>
	<path class="st0" d="M80.8,81.5H44.5c-5,0-9-4-9-9V54.2c0-5,4-9,9-9h36.3c5,0,9,4,9,9v18.3C89.8,77.5,85.8,81.5,80.8,81.5z"/>
	<path class="st0" d="M120.2,70L98.1,90.3C92.3,95.6,83,91.5,83,83.6L83,43c0-7.8,9.3-11.9,15.1-6.6l22.1,20.3
		C124,60.3,124,66.4,120.2,70z"/>
	<path class="st1" d="M138.1,122.2H22.5c-9.9,0-18-8.1-18-18V22.5c0-9.9,8.1-18,18-18h115.6c9.9,0,18,8.1,18,18v81.7
		C156.1,114.1,148,122.2,138.1,122.2z"/>
</g>
</svg>
