<!-- Generator: Adobe Illustrator 24.3.0, SVG Export Plug-In  -->
<svg version="1.1" xmlns="http://www.w3.org/2000/svg" xmlns:xlink="http://www.w3.org/1999/xlink" x="0px" y="0px" width="56px"
	 height="56px" viewBox="0 0 56 56" style="overflow:visible;enable-background:new 0 0 56 56;" xml:space="preserve">
<style type="text/css">
	.st0{fill:#D46B35;}
	.st1{fill:#D46B34;}
</style>
<defs>
</defs>
<g>
	<g>
		<path class="st0" d="M28,56C12.6,56,0,43.4,0,28S12.6,0,28,0s28,12.6,28,28S43.4,56,28,56z M28,5C15.3,5,5,15.3,5,28
			c0,12.7,10.3,23,23,23s23-10.3,23-23C51,15.3,40.7,5,28,5z"/>
	</g>
	<g>
		<g>
			<path class="st0" d="M15.6,34.8c-0.6,0-1-0.4-1-1V22.6c0-0.6,0.4-1,1-1h15.2c0.6,0,1,0.4,1,1v11.2c0,0.6-0.4,1-1,1H15.6z"/>
			<path class="st1" d="M30.8,22.6v11.2H15.6V22.6H30.8 M30.8,20.6H15.6c-1.1,0-2,0.9-2,2v11.2c0,1.1,0.9,2,2,2h15.2
				c1.1,0,2-0.9,2-2V22.6C32.8,21.5,31.9,20.6,30.8,20.6L30.8,20.6z"/>
		</g>
		<g>
			<path class="st0" d="M37,41.8c-0.2,0-0.3,0-0.5-0.1L15.1,29.1c-0.3-0.2-0.5-0.5-0.5-0.9s0.2-0.7,0.5-0.9l21.4-12.5
				c0.2-0.1,0.3-0.1,0.5-0.1c0.2,0,0.3,0,0.5,0.1c0.3,0.2,0.5,0.5,0.5,0.9v25.1c0,0.4-0.2,0.7-0.5,0.9C37.4,41.7,37.2,41.8,37,41.8z
				"/>
			<path class="st1" d="M37,15.7v25.1L15.6,28.2L37,15.7 M37,13.7c-0.3,0-0.7,0.1-1,0.3L14.6,26.5c-0.6,0.4-1,1-1,1.7s0.4,1.4,1,1.7
				L36,42.5c0.3,0.2,0.7,0.3,1,0.3c0.3,0,0.7-0.1,1-0.3c0.6-0.4,1-1,1-1.7V15.7c0-0.7-0.4-1.4-1-1.7C37.7,13.8,37.4,13.7,37,13.7
				L37,13.7z"/>
		</g>
	</g>
</g>
</svg>
