<!-- Generator: Adobe Illustrator 24.3.0, SVG Export Plug-In  -->
<svg version="1.1" xmlns="http://www.w3.org/2000/svg" xmlns:xlink="http://www.w3.org/1999/xlink" x="0px" y="0px" width="620.9px"
	 height="85.7px" viewBox="0 0 620.9 85.7" style="overflow:visible;enable-background:new 0 0 620.9 85.7;" xml:space="preserve">
<style type="text/css">
	.st0{fill:#106DA7;}
	.st1{fill:#EDB671;}
</style>
<defs>
</defs>
<path class="st0" d="M18.4,0C7.2,8.8,0,22.4,0,37.8c0,26.5,21.4,47.9,47.9,47.9c17.7,0,33.1-9.6,41.4-23.8c0,0-30,9.7-53.1-6.1
	C11.8,39,18.4,0,18.4,0"/>
<g>
	<path class="st1" d="M123.1,53.8v4.5h-17.9v-4.5h6.3V36.4c0-0.4,0-0.8,0-1.2c0-0.4,0-0.8,0.1-1.2l-4.2,3.5
		c-0.3,0.2-0.6,0.4-0.9,0.4c-0.3,0.1-0.5,0.1-0.8,0c-0.2-0.1-0.5-0.1-0.7-0.3c-0.2-0.1-0.3-0.3-0.4-0.4l-1.9-2.6l9.8-8.3h5v27.4
		H123.1z"/>
	<path class="st1" d="M143,46.1c0.2-0.3,0.4-0.5,0.6-0.8s0.4-0.5,0.6-0.8c-0.7,0.4-1.5,0.7-2.3,0.9c-0.8,0.2-1.7,0.3-2.6,0.3
		c-1.1,0-2.1-0.2-3.2-0.6c-1-0.4-2-1-2.8-1.7c-0.8-0.8-1.5-1.7-2-2.9c-0.5-1.1-0.8-2.5-0.8-4.1c0-1.4,0.3-2.8,0.8-4
		c0.5-1.3,1.3-2.4,2.2-3.3c1-0.9,2.1-1.7,3.5-2.3s2.9-0.8,4.5-0.8c1.7,0,3.2,0.3,4.5,0.8c1.3,0.5,2.5,1.2,3.4,2.2
		c0.9,0.9,1.6,2.1,2.1,3.4c0.5,1.3,0.7,2.7,0.7,4.3c0,1-0.1,2-0.2,2.9c-0.2,0.9-0.4,1.8-0.7,2.6c-0.3,0.8-0.7,1.6-1.1,2.4
		s-0.9,1.5-1.5,2.3l-7.1,10.1c-0.3,0.4-0.7,0.7-1.3,1c-0.5,0.3-1.2,0.4-1.9,0.4H133L143,46.1z M136.7,36.1c0,1.7,0.4,3,1.2,3.8
		s2,1.3,3.6,1.3c0.8,0,1.5-0.1,2.2-0.4c0.6-0.3,1.2-0.6,1.6-1.1c0.4-0.5,0.8-1,1-1.6c0.2-0.6,0.3-1.3,0.3-2.1c0-0.8-0.1-1.6-0.4-2.2
		c-0.2-0.6-0.6-1.2-1-1.6c-0.4-0.4-1-0.8-1.6-1s-1.3-0.3-2-0.3c-0.8,0-1.4,0.1-2,0.4c-0.6,0.3-1.1,0.6-1.5,1.1c-0.4,0.5-0.8,1-1,1.6
		C136.8,34.7,136.7,35.3,136.7,36.1z"/>
	<path class="st1" d="M169.7,37.9l-1,1.2c0.6-0.2,1.2-0.4,1.8-0.6c0.6-0.1,1.3-0.2,2.1-0.2c1.2,0,2.3,0.2,3.5,0.6
		c1.1,0.4,2.1,1,3,1.8s1.6,1.8,2.1,3c0.5,1.2,0.8,2.6,0.8,4.2c0,1.5-0.3,2.9-0.8,4.2c-0.5,1.3-1.3,2.5-2.3,3.4c-1,1-2.2,1.8-3.6,2.3
		s-3,0.9-4.7,0.9c-1.7,0-3.3-0.3-4.7-0.8c-1.4-0.5-2.5-1.3-3.5-2.3s-1.7-2.2-2.2-3.6c-0.5-1.4-0.8-2.9-0.8-4.6
		c0-1.5,0.3-3.1,0.9-4.7c0.6-1.6,1.5-3.2,2.8-4.9l7.4-10c0.3-0.4,0.7-0.7,1.3-1s1.2-0.4,2-0.4h5.4L169.7,37.9z M170.4,53.8
		c0.8,0,1.5-0.1,2.2-0.4c0.7-0.3,1.3-0.7,1.7-1.2s0.9-1.1,1.1-1.7s0.4-1.4,0.4-2.2c0-0.9-0.1-1.6-0.4-2.3c-0.3-0.7-0.6-1.3-1.1-1.7
		c-0.5-0.5-1.1-0.8-1.7-1.1c-0.7-0.2-1.4-0.4-2.2-0.4c-0.8,0-1.5,0.1-2.1,0.4s-1.2,0.7-1.7,1.1c-0.5,0.5-0.8,1.1-1.1,1.7
		c-0.3,0.7-0.4,1.4-0.4,2.2c0,0.8,0.1,1.6,0.3,2.3c0.2,0.7,0.5,1.3,1,1.7s1,0.9,1.6,1.1S169.6,53.8,170.4,53.8z"/>
	<path class="st1" d="M200.6,46.1c0.2-0.3,0.4-0.5,0.6-0.8s0.4-0.5,0.6-0.8c-0.7,0.4-1.5,0.7-2.3,0.9c-0.8,0.2-1.7,0.3-2.6,0.3
		c-1.1,0-2.1-0.2-3.2-0.6c-1-0.4-2-1-2.8-1.7c-0.8-0.8-1.5-1.7-2-2.9c-0.5-1.1-0.8-2.5-0.8-4.1c0-1.4,0.3-2.8,0.8-4
		c0.5-1.3,1.3-2.4,2.2-3.3c1-0.9,2.1-1.7,3.5-2.3s2.9-0.8,4.5-0.8c1.7,0,3.2,0.3,4.5,0.8c1.3,0.5,2.5,1.2,3.4,2.2
		c0.9,0.9,1.6,2.1,2.1,3.4c0.5,1.3,0.7,2.7,0.7,4.3c0,1-0.1,2-0.2,2.9c-0.2,0.9-0.4,1.8-0.7,2.6c-0.3,0.8-0.7,1.6-1.1,2.4
		s-0.9,1.5-1.5,2.3l-7.1,10.1c-0.3,0.4-0.7,0.7-1.3,1c-0.5,0.3-1.2,0.4-1.9,0.4h-5.6L200.6,46.1z M194.2,36.1c0,1.7,0.4,3,1.2,3.8
		s2,1.3,3.6,1.3c0.8,0,1.5-0.1,2.2-0.4c0.6-0.3,1.2-0.6,1.6-1.1c0.4-0.5,0.8-1,1-1.6c0.2-0.6,0.3-1.3,0.3-2.1c0-0.8-0.1-1.6-0.4-2.2
		c-0.2-0.6-0.6-1.2-1-1.6c-0.4-0.4-1-0.8-1.6-1s-1.3-0.3-2-0.3c-0.8,0-1.4,0.1-2,0.4c-0.6,0.3-1.1,0.6-1.5,1.1c-0.4,0.5-0.8,1-1,1.6
		C194.3,34.7,194.2,35.3,194.2,36.1z"/>
	<path class="st1" d="M267.5,26.4v31.9h-5.8V38.7c0-0.4,0-0.8,0-1.3c0-0.5,0.1-0.9,0.1-1.4l-9.1,17.3c-0.5,1-1.3,1.4-2.3,1.4h-0.9
		c-0.5,0-1-0.1-1.4-0.4s-0.7-0.6-0.9-1.1L238,35.9c0,0.5,0.1,1,0.1,1.5c0,0.5,0,0.9,0,1.3v19.6h-5.8V26.4h5c0.3,0,0.5,0,0.7,0
		s0.4,0.1,0.6,0.1c0.2,0.1,0.3,0.2,0.5,0.3c0.1,0.1,0.3,0.3,0.4,0.6l8.9,17c0.3,0.5,0.5,1,0.8,1.6c0.2,0.5,0.5,1.1,0.7,1.7
		c0.2-0.6,0.5-1.2,0.7-1.7c0.2-0.6,0.5-1.1,0.8-1.6l8.9-16.9c0.1-0.2,0.3-0.4,0.4-0.6c0.1-0.1,0.3-0.2,0.5-0.3
		c0.2-0.1,0.4-0.1,0.6-0.1s0.5,0,0.8,0H267.5z"/>
	<path class="st1" d="M308.2,42.3c0,2.3-0.4,4.5-1.2,6.5c-0.8,2-1.9,3.7-3.3,5.2c-1.4,1.5-3.1,2.6-5.2,3.4s-4.2,1.2-6.7,1.2
		s-4.7-0.4-6.7-1.2s-3.7-2-5.2-3.4c-1.4-1.4-2.5-3.2-3.3-5.2c-0.8-2-1.2-4.2-1.2-6.5c0-2.3,0.4-4.5,1.2-6.5c0.8-2,1.9-3.7,3.3-5.2
		c1.4-1.5,3.2-2.6,5.2-3.4c2-0.8,4.2-1.2,6.7-1.2s4.7,0.4,6.7,1.2c2,0.8,3.7,2,5.2,3.4c1.4,1.5,2.5,3.2,3.3,5.2
		C307.8,37.9,308.2,40,308.2,42.3z M301.4,42.3c0-1.7-0.2-3.2-0.7-4.5c-0.4-1.3-1.1-2.5-1.9-3.4c-0.8-0.9-1.8-1.6-3-2.1
		c-1.2-0.5-2.5-0.7-4-0.7s-2.8,0.2-4,0.7c-1.2,0.5-2.2,1.2-3,2.1c-0.8,0.9-1.5,2.1-1.9,3.4c-0.4,1.3-0.7,2.8-0.7,4.5
		c0,1.7,0.2,3.2,0.7,4.5s1.1,2.4,1.9,3.4c0.8,0.9,1.8,1.6,3,2.1c1.2,0.5,2.5,0.7,4,0.7s2.8-0.2,4-0.7c1.2-0.5,2.2-1.2,3-2.1
		c0.8-0.9,1.5-2,1.9-3.4S301.4,44,301.4,42.3z"/>
	<path class="st1" d="M347.1,42.3c0,2.3-0.4,4.5-1.2,6.5c-0.8,2-1.9,3.7-3.3,5.2c-1.4,1.5-3.1,2.6-5.2,3.4s-4.2,1.2-6.7,1.2
		s-4.7-0.4-6.7-1.2s-3.7-2-5.2-3.4c-1.4-1.4-2.5-3.2-3.3-5.2c-0.8-2-1.2-4.2-1.2-6.5c0-2.3,0.4-4.5,1.2-6.5c0.8-2,1.9-3.7,3.3-5.2
		c1.4-1.5,3.2-2.6,5.2-3.4c2-0.8,4.2-1.2,6.7-1.2s4.7,0.4,6.7,1.2c2,0.8,3.7,2,5.2,3.4c1.4,1.5,2.5,3.2,3.3,5.2
		C346.7,37.9,347.1,40,347.1,42.3z M340.4,42.3c0-1.7-0.2-3.2-0.7-4.5c-0.4-1.3-1.1-2.5-1.9-3.4c-0.8-0.9-1.8-1.6-3-2.1
		c-1.2-0.5-2.5-0.7-4-0.7s-2.8,0.2-4,0.7c-1.2,0.5-2.2,1.2-3,2.1c-0.8,0.9-1.5,2.1-1.9,3.4c-0.4,1.3-0.7,2.8-0.7,4.5
		c0,1.7,0.2,3.2,0.7,4.5s1.1,2.4,1.9,3.4c0.8,0.9,1.8,1.6,3,2.1c1.2,0.5,2.5,0.7,4,0.7s2.8-0.2,4-0.7c1.2-0.5,2.2-1.2,3-2.1
		c0.8-0.9,1.5-2,1.9-3.4S340.4,44,340.4,42.3z"/>
	<path class="st1" d="M382.6,26.4v31.9h-3.4c-0.5,0-0.9-0.1-1.3-0.3s-0.7-0.5-1-0.9L360.9,37c0,0.5,0.1,1,0.1,1.5c0,0.5,0,1,0,1.4
		v18.4h-5.8V26.4h3.5c0.3,0,0.5,0,0.7,0c0.2,0,0.4,0.1,0.5,0.2c0.2,0.1,0.3,0.2,0.5,0.3s0.3,0.3,0.5,0.5l16,20.3
		c-0.1-0.6-0.1-1.1-0.1-1.6c0-0.5,0-1,0-1.5V26.4H382.6z"/>
	<path class="st1" d="M425.1,52.9v5.4h-18.9V26.4h6.6v26.5H425.1z"/>
	<path class="st1" d="M460.3,58.3h-5.1c-0.6,0-1-0.1-1.4-0.4c-0.4-0.3-0.6-0.6-0.8-1l-2.2-6.1h-12.7l-2.2,6.1
		c-0.1,0.4-0.4,0.7-0.8,1s-0.8,0.5-1.4,0.5h-5.2l12.5-31.9h6.7L460.3,58.3z M449.2,46.2l-3.4-9.8c-0.2-0.5-0.4-1.1-0.6-1.8
		c-0.2-0.7-0.4-1.4-0.6-2.2c-0.2,0.8-0.4,1.6-0.6,2.3c-0.2,0.7-0.4,1.3-0.6,1.8l-3.4,9.7H449.2z"/>
	<path class="st1" d="M493.9,26.4v31.9h-3.4c-0.5,0-0.9-0.1-1.3-0.3s-0.7-0.5-1-0.9L472.2,37c0,0.5,0.1,1,0.1,1.5c0,0.5,0,1,0,1.4
		v18.4h-5.8V26.4h3.5c0.3,0,0.5,0,0.7,0c0.2,0,0.4,0.1,0.5,0.2c0.2,0.1,0.3,0.2,0.5,0.3s0.3,0.3,0.5,0.5l16,20.3
		c-0.1-0.6-0.1-1.1-0.1-1.6c0-0.5,0-1,0-1.5V26.4H493.9z"/>
	<path class="st1" d="M532.4,42.3c0,2.3-0.4,4.5-1.2,6.4c-0.8,2-1.9,3.6-3.3,5c-1.4,1.4-3.1,2.5-5.2,3.3c-2,0.8-4.2,1.2-6.7,1.2
		h-12.3V26.4H516c2.4,0,4.7,0.4,6.7,1.2c2,0.8,3.7,1.9,5.2,3.3c1.4,1.4,2.5,3.1,3.3,5C532,37.9,532.4,40,532.4,42.3z M525.6,42.3
		c0-1.7-0.2-3.2-0.7-4.5c-0.4-1.3-1.1-2.5-1.9-3.4c-0.8-0.9-1.8-1.6-3-2.1c-1.2-0.5-2.5-0.7-4-0.7h-5.6v21.6h5.6
		c1.5,0,2.8-0.2,4-0.7c1.2-0.5,2.2-1.2,3-2.1s1.5-2.1,1.9-3.4C525.4,45.5,525.6,44,525.6,42.3z"/>
	<path class="st1" d="M547.2,58.3h-6.6V26.4h6.6V58.3z"/>
	<path class="st1" d="M584.4,26.4v31.9H581c-0.5,0-0.9-0.1-1.3-0.3s-0.7-0.5-1-0.9L562.8,37c0,0.5,0.1,1,0.1,1.5c0,0.5,0,1,0,1.4
		v18.4h-5.8V26.4h3.5c0.3,0,0.5,0,0.7,0c0.2,0,0.4,0.1,0.5,0.2c0.2,0.1,0.3,0.2,0.5,0.3s0.3,0.3,0.5,0.5l16,20.3
		c-0.1-0.6-0.1-1.1-0.1-1.6c0-0.5,0-1,0-1.5V26.4H584.4z"/>
	<path class="st1" d="M609.8,42.1h10.9v13.2c-1.6,1.2-3.4,2.1-5.2,2.6c-1.8,0.5-3.8,0.8-5.8,0.8c-2.6,0-5-0.4-7.1-1.2
		c-2.1-0.8-3.9-1.9-5.4-3.4c-1.5-1.4-2.7-3.2-3.5-5.2s-1.2-4.2-1.2-6.5c0-2.4,0.4-4.6,1.2-6.6c0.8-2,1.9-3.7,3.4-5.1
		c1.4-1.4,3.2-2.6,5.3-3.4c2.1-0.8,4.4-1.2,6.9-1.2c1.3,0,2.5,0.1,3.7,0.3c1.1,0.2,2.2,0.5,3.2,0.9s1.9,0.8,2.7,1.3
		c0.8,0.5,1.5,1.1,2.2,1.7l-1.9,2.9c-0.3,0.5-0.7,0.8-1.1,0.9s-1,0-1.5-0.4c-0.5-0.3-1-0.6-1.5-0.9s-1-0.5-1.6-0.7
		c-0.6-0.2-1.2-0.3-1.9-0.4c-0.7-0.1-1.5-0.2-2.3-0.2c-1.5,0-2.8,0.3-4,0.8c-1.2,0.5-2.2,1.2-3.1,2.2c-0.8,0.9-1.5,2.1-1.9,3.4
		c-0.5,1.3-0.7,2.8-0.7,4.4c0,1.8,0.2,3.3,0.7,4.7c0.5,1.4,1.2,2.6,2.1,3.5c0.9,1,2,1.7,3.3,2.2s2.7,0.7,4.2,0.7
		c1.1,0,2-0.1,2.8-0.3c0.8-0.2,1.6-0.5,2.4-0.9v-5.4h-3.6c-0.4,0-0.8-0.1-1-0.3c-0.2-0.2-0.4-0.5-0.4-0.9V42.1z"/>
</g>
</svg>
